# xmcd
#
# Track frame offsets: 
#        150
#        6982
#        29305
#        47190
#        61001
#        79035
#        97478
#        117281
#        140342
#        160224
#        174546
#        198199
#        209885
#
# Disc length: 3050 seconds
#
# Revision: 0
# Processed by: cddbd v1.5.2PL0 Copyright (c) Steve Scherf et al.
# Submitted via: ExactAudioCopy v0.99pb3
#
DISCID=b70be80d
DTITLE=Willie Logan - Frigile Creature
DYEAR=2006
DGENRE=Blues
TTITLE0=Dissolve
TTITLE1=Gone too Far
TTITLE2=Heavens above
TTITLE3=Izabella
TTITLE4=Purble Blues
TTITLE5=Needle and the Nerve
TTITLE6=Fragile Creatures
TTITLE7=Whipping Post
TTITLE8=My typical Life
TTITLE9=Don't Tear my clothes
TTITLE10=Long Sunday
TTITLE11=Satch
TTITLE12=Shaping up
EXTD=
EXTT0=
EXTT1=
EXTT2=
EXTT3=
EXTT4=
EXTT5=
EXTT6=
EXTT7=
EXTT8=
EXTT9=
EXTT10=
EXTT11=
EXTT12=
PLAYORDER=
